<svg width="32" height="32" viewBox="0 0 32 32" fill="none" xmlns="http://www.w3.org/2000/svg">
<path d="M24.5886 24.691L19.8635 23.3012C19.2911 23.1329 18.898 22.6075 18.898 22.0109V19.879H12.6215V22.0109C12.6215 22.6075 12.2284 23.1329 11.656 23.3012L6.93095 24.691C5.78618 25.0277 5 26.0783 5 27.2716V30.6387C5 31.3816 5.60216 31.9837 6.34498 31.9837H25.1746C25.9174 31.9837 26.5195 31.3816 26.5195 30.6387V27.2716C26.5195 26.0783 25.7334 25.0277 24.5886 24.691Z" fill="#D6D6D6"/>
<path d="M24.5886 24.707L19.8635 23.3173C19.7836 23.2938 19.7082 23.2619 19.6359 23.2252L15.7595 23.93L11.8836 23.2252C11.8113 23.2619 11.7359 23.2938 11.656 23.3173L6.93095 24.707C5.78613 25.0437 5 26.0944 5 27.2877V30.6549C5 31.3976 5.60216 31.9998 6.34498 31.9998H25.1746C25.9174 31.9998 26.5195 31.3976 26.5195 30.6548V27.2876C26.5195 26.0944 25.7334 25.0437 24.5886 24.707Z" fill="#E0E0E0"/>
<path d="M10.4571 24.3447L12.6785 26.2488C13.0033 26.5272 13.4176 26.6805 13.845 26.6805C14.3931 26.6805 14.9037 26.4352 15.2459 26.0075L15.7596 25.3653L16.2733 26.0074C16.6154 26.4352 17.126 26.6805 17.6741 26.6805C18.1016 26.6805 18.5158 26.5271 18.8407 26.2487L21.0621 24.3447C21.2422 24.1902 21.3662 23.9931 21.4358 23.7798L19.8633 23.3173C19.7834 23.2938 19.708 23.2619 19.6357 23.2252L15.7594 23.93L11.8835 23.2252C11.8112 23.2619 11.7357 23.2938 11.6558 23.3173L10.0834 23.7798C10.1529 23.9932 10.277 24.1903 10.4571 24.3447Z" fill="#D5D5D5"/>
<path d="M12.6216 20.8956C13.5635 21.3987 14.6316 21.6884 15.7599 21.6884C16.8881 21.6884 17.9563 21.3987 18.8981 20.8956V19.8951H12.6216V20.8956Z" fill="#C6C6C6"/>
<path d="M21.8122 13.1704H21.588V8.23877H9.93165V13.1703H9.70748C9.08848 13.1703 8.58667 13.6721 8.58667 14.2911C8.58667 14.9101 9.08848 15.4119 9.70748 15.4119H9.95429C10.1839 18.4205 12.6924 20.7918 15.7598 20.7918C18.8273 20.7918 21.3357 18.4205 21.5654 15.4119H21.8122C22.4312 15.4119 22.933 14.9101 22.933 14.2911C22.933 13.6722 22.4312 13.1704 21.8122 13.1704Z" fill="#EFEFEF"/>
<path d="M19.7947 9.11919V8.22253H9.9316V13.1541H9.77142C9.18512 13.1541 8.65088 13.5759 8.59248 14.1592C8.52527 14.8301 9.05032 15.3956 9.70749 15.3956H9.9543C10.1839 18.4043 12.6924 20.7755 15.7598 20.7755C16.0665 20.7755 16.3656 20.7456 16.6593 20.6999C13.8659 20.2688 11.7249 17.8613 11.7249 14.9473V11.809C11.7249 10.8186 12.5278 10.0157 13.5182 10.0157H18.8981C19.3933 10.0158 19.7947 9.61443 19.7947 9.11919Z" fill="#DDDDDD"/>
<path d="M15.7596 23.93L12.134 21.9158C11.9109 21.7918 11.6295 21.8789 11.5153 22.1072L10.9533 23.2312C10.8797 23.3785 10.9157 23.5568 11.0407 23.6639L13.2621 25.568C13.6471 25.898 14.229 25.8433 14.5457 25.4473L15.7596 23.93Z" fill="#DDDDDD"/>
<path d="M15.7598 23.9299L19.3854 21.9157C19.6085 21.7917 19.8899 21.8788 20.0041 22.1071L20.5661 23.2311C20.6397 23.3783 20.6037 23.5567 20.4787 23.6638L18.2573 25.5678C17.8723 25.8979 17.2904 25.8432 16.9737 25.4472L15.7598 23.9299Z" fill="#DDDDDD"/>
<path d="M15.7598 27.9649C16.0075 27.9649 16.2082 27.7642 16.2082 27.5166C16.2082 27.269 16.0075 27.0682 15.7598 27.0682C15.5122 27.0682 15.3115 27.269 15.3115 27.5166C15.3115 27.7642 15.5122 27.9649 15.7598 27.9649Z" fill="#C6C6C6"/>
<path d="M20.7828 7.18237H10.7366C9.36771 7.18237 8.31848 8.39856 8.51918 9.75262L9.03488 13.2321L10.0415 13.1077C10.4907 13.0522 10.8282 12.6706 10.8282 12.2179V9.87227C10.8282 9.37703 11.2296 8.97562 11.7248 8.97562H19.7946C20.2898 8.97562 20.6913 9.37703 20.6913 9.87227V12.2178C20.6913 12.6705 21.0288 13.0522 21.478 13.1077L22.4846 13.232L23.0003 9.75256C23.2009 8.39851 22.1517 7.18237 20.7828 7.18237Z" fill="#CCCCCC"/>
<path d="M21.7984 4.31543C21.7123 4.04845 21.4022 3.91884 21.1572 4.05551C20.6901 4.31615 19.8219 4.65214 18.4497 4.65214H13.9664C12.2332 4.65214 10.8281 6.05717 10.8281 7.79042C10.8281 8.53324 11.4303 9.1354 12.1731 9.1354H19.3463C21.0311 9.1354 22.7158 7.15704 21.7984 4.31543Z" fill="#C6C6C6"/>
<path d="M9.03492 27.9653V32.0003H7.68994V29.3103C7.68994 28.5675 8.2921 27.9653 9.03492 27.9653Z" fill="#D4D4D4"/>
<path d="M22.4847 27.965V31.9999H23.8297V29.3099C23.8297 28.5671 23.2276 27.965 22.4847 27.965Z" fill="#D4D4D4"/>
<path d="M9.03479 32.0002H10.8281V23.5612L9.03479 24.0886V32.0002Z" fill="#D1D1D1"/>
<path d="M22.4847 31.9999H20.6914V23.5608L22.4847 24.0883V31.9999Z" fill="#D1D1D1"/>
<path d="M9.03479 32.0003H9.93144V28.862C9.93144 28.3668 9.52998 27.9653 9.03479 27.9653V32.0003V32.0003Z" fill="#C8C8C8"/>
<path d="M22.4848 31.9999H21.5881V28.8616C21.5881 28.3664 21.9896 27.965 22.4848 27.965V31.9999Z" fill="#C8C8C8"/>
<path d="M13.4967 6.21494C13.5035 6.85062 14.0665 7.34204 14.7022 7.34204H20.7827C21.1053 7.34204 21.4091 7.4116 21.684 7.53263C22.0924 6.70362 22.2129 5.59867 21.7977 4.31363C21.7118 4.04795 21.4019 3.91862 21.1582 4.05479C20.6915 4.31554 19.8229 4.65214 18.4494 4.65214H13.9662C13.9382 4.6686 13.9065 4.68719 13.8785 4.70365C13.636 5.14875 13.4966 5.65795 13.4966 6.2005C13.4966 6.20526 13.4967 6.21007 13.4967 6.21494Z" fill="#D4D4D4"/>
</svg>
