<svg width="32" height="32" viewBox="0 0 32 32" fill="none" xmlns="http://www.w3.org/2000/svg">
<g clip-path="url(#clip0_1486_2)">
<rect width="32" height="32" fill="white"/>
<mask id="mask0_1486_2" style="mask-type:luminance" maskUnits="userSpaceOnUse" x="0" y="0" width="32" height="32">
<path d="M32 0H0V32H32V0Z" fill="white"/>
</mask>
<g mask="url(#mask0_1486_2)">
<path opacity="0.7" d="M7.23875 16.766C2.25624 14.2774 -2.36295 23.4024 -3.91998 28.276V32.32H32.8V16.766C29.167 10.5441 26.0529 23.9211 20.4735 24.5434C14.8942 25.1655 13.4669 19.8768 7.23875 16.766Z" fill="#E8E8E8"/>
<path fill-rule="evenodd" clip-rule="evenodd" d="M25.4999 29C29.642 29 32.9999 29.2239 32.9999 29.5001C32.9999 29.7763 29.642 30 25.4999 30C21.3578 30 17.9999 29.7762 17.9999 29.5001C17.9999 29.224 21.3578 29 25.4999 29Z" fill="#D4D4D4"/>
<path d="M12.44 14.56C14.7596 14.56 16.64 12.6796 16.64 10.36C16.64 8.04038 14.7596 6.15997 12.44 6.15997C10.1204 6.15997 8.23999 8.04038 8.23999 10.36C8.23999 12.6796 10.1204 14.56 12.44 14.56Z" fill="white"/>
<g style="mix-blend-mode:luminosity">
<path fill-rule="evenodd" clip-rule="evenodd" d="M10.2788 27.358C11.5337 27.358 12.551 27.4637 12.551 27.5943C12.551 27.7248 11.5337 27.8307 10.2788 27.8307C9.02387 27.8307 8.00659 27.7248 8.00659 27.5943C8.00659 27.4637 9.02387 27.358 10.2788 27.358Z" fill="#D4D4D4"/>
<path fill-rule="evenodd" clip-rule="evenodd" d="M8 16.0903L11 24.7754H5L8 16.0903Z" fill="#D4D4D4"/>
<path fill-rule="evenodd" clip-rule="evenodd" d="M9.34765 22.0417L7.88883 23.4851L6.76331 22.3716L7.01442 22.1178L7.88882 22.9829L9.09652 21.7879L9.34765 22.0417Z" fill="#C1C1C1"/>
<path fill-rule="evenodd" clip-rule="evenodd" d="M7.82147 27.627V23.2294H8.17852V27.627H7.82147Z" fill="#C1C1C1"/>
<path fill-rule="evenodd" clip-rule="evenodd" d="M20.6571 16.5924C21.5741 16.5956 22.4695 16.8706 23.2303 17.3826C23.9912 17.8944 24.5832 18.6203 24.9318 19.4684C25.2804 20.3166 25.3699 21.2491 25.1889 22.148C25.0079 23.047 24.5648 23.8722 23.9151 24.5194C23.2655 25.1667 22.4388 25.6068 21.5391 25.7846C20.6395 25.9622 19.7073 25.8694 18.8605 25.5176C18.0136 25.166 17.29 24.5713 16.7809 23.8085C16.2718 23.0458 16 22.1494 16 21.2324C16.0011 20.622 16.1224 20.0177 16.357 19.4541C16.5917 18.8905 16.935 18.3786 17.3675 17.9478C17.7999 17.5169 18.3131 17.1755 18.8774 16.9429C19.4419 16.7102 20.0466 16.5912 20.6571 16.5924Z" fill="#DEDEDE"/>
<path fill-rule="evenodd" clip-rule="evenodd" d="M22.861 22.1289L20.7124 24.2345L19.0659 22.621L19.3458 22.3353L20.7124 23.6746L22.5811 21.8432L22.861 22.1289Z" fill="#CBCBCB"/>
<path fill-rule="evenodd" clip-rule="evenodd" d="M20.4963 29.2991V24.0402H20.8963V29.2991H20.4963Z" fill="#CBCBCB"/>
<path fill-rule="evenodd" clip-rule="evenodd" d="M30.3 12.6705L34.6 25.231H26L30.3 12.6705Z" fill="#D5D5D5"/>
<path fill-rule="evenodd" clip-rule="evenodd" d="M32.2032 20.8427L30.2128 22.8846L28.6911 21.3237L28.9216 21.099L30.2128 22.4235L31.9727 20.618L32.2032 20.8427Z" fill="#C1C1C1"/>
<path fill-rule="evenodd" clip-rule="evenodd" d="M30.1391 29.2467V22.6314H30.461V29.2467H30.1391Z" fill="#C1C1C1"/>
</g>
<path fill-rule="evenodd" clip-rule="evenodd" d="M24.0211 6.16H28.1131C28.3023 6.05879 28.4595 5.90681 28.5666 5.72125C28.6738 5.53568 28.7267 5.32394 28.7194 5.10997C28.7194 4.33497 27.8099 4.35994 27.8099 4.35994C27.8099 4.35994 27.8099 2.56 25.9912 2.56C24.5766 2.56 24.3241 3.75996 24.3241 3.75996C24.3241 3.75996 22.96 3.68493 22.96 4.95992C22.9603 6.03514 23.7686 6.16 24.0211 6.16Z" fill="#DDDDDD"/>
<path fill-rule="evenodd" clip-rule="evenodd" d="M20.4274 12.08H23.1554C23.2816 12.0102 23.3864 11.9056 23.4578 11.7777C23.5292 11.6499 23.5644 11.5041 23.5596 11.3566C23.5596 10.8227 22.9533 10.84 22.9533 10.84C22.9533 10.84 22.9533 9.59998 21.7408 9.59998C20.7977 9.59998 20.6294 10.4266 20.6294 10.4266C20.6294 10.4266 19.72 10.3749 19.72 11.2533C19.7202 11.994 20.2591 12.08 20.4274 12.08Z" fill="#EFEFEF"/>
<path fill-rule="evenodd" clip-rule="evenodd" d="M1.03456 12.1333H5.02504C5.20986 12.0337 5.36316 11.8844 5.46762 11.7023C5.57209 11.5202 5.62357 11.3125 5.61624 11.1027C5.61624 10.3421 4.72944 10.3667 4.72944 10.3667C4.72944 10.3667 4.72944 8.59998 2.95592 8.59998C1.57648 8.59998 1.33016 9.77782 1.33016 9.77782C1.33016 9.77782 0 9.70414 0 10.9556C0 12.0103 0.788241 12.1333 1.03456 12.1333Z" fill="#E6E6E6"/>
</g>
</g>
<defs>
<clipPath id="clip0_1486_2">
<rect width="32" height="32" fill="white"/>
</clipPath>
</defs>
</svg>
