<svg width="200" height="49" viewBox="0 0 200 49" fill="none" xmlns="http://www.w3.org/2000/svg">
<g clip-path="url(#clip0_1262_2272)">
<path d="M79.1783 39.0283H85.47L73.9983 6.49H66.7217L55.2667 39.0283H61.5583L64.25 31.005H76.4833L79.1783 39.0283ZM65.8383 26.27L70.235 13.1617H70.49L74.8933 26.27H65.8383ZM91.6767 24.7283V39.0267H85.925V14.6233H91.4217V18.77H91.7083C92.27 17.4033 93.1667 16.3183 94.4017 15.5133C95.635 14.7083 97.1633 14.305 98.985 14.305C100.668 14.305 102.138 14.665 103.393 15.385C104.648 16.105 105.623 17.1483 106.317 18.515C107.01 19.8817 107.352 21.54 107.342 23.4883V39.0267H101.59V24.3783C101.59 22.7467 101.168 21.47 100.327 20.55C99.485 19.6283 98.3217 19.1683 96.84 19.1683C95.8333 19.1683 94.9417 19.3883 94.1633 19.8283C93.385 20.2683 92.7767 20.9017 92.3367 21.7267C91.8967 22.5533 91.6767 23.5533 91.6767 24.73V24.7283ZM120.017 48.6867C117.952 48.6867 116.177 48.4083 114.693 47.8533C113.21 47.2967 112.018 46.5533 111.118 45.6217C110.218 44.69 109.593 43.6567 109.243 42.5233L114.423 41.2683C114.657 41.745 114.995 42.2183 115.44 42.69C115.885 43.1617 116.487 43.5533 117.243 43.865C118 44.1767 118.957 44.3333 120.112 44.3333C121.743 44.3333 123.093 43.9383 124.163 43.15C125.233 42.3617 125.768 41.0667 125.768 39.265V34.6417H125.482C125.185 35.235 124.753 35.8433 124.187 36.4683C123.62 37.0933 122.873 37.6183 121.947 38.0417C121.02 38.465 119.857 38.6767 118.46 38.6767C116.585 38.6767 114.888 38.235 113.368 37.35C111.848 36.465 110.64 35.1417 109.747 33.3783C108.852 31.615 108.403 29.4033 108.403 26.745C108.403 24.0867 108.852 21.8017 109.747 19.9533C110.642 18.105 111.852 16.7017 113.377 15.7433C114.902 14.785 116.602 14.305 118.477 14.305C119.907 14.305 121.085 14.5467 122.012 15.0283C122.938 15.51 123.677 16.0883 124.228 16.76C124.778 17.4333 125.198 18.065 125.483 18.6583H125.802V14.6233H131.473V39.425C131.473 41.5117 130.975 43.2383 129.98 44.605C128.985 45.9717 127.623 46.9933 125.897 47.6717C124.17 48.35 122.21 48.6883 120.018 48.6883L120.017 48.6867ZM120.063 34.1667C121.282 34.1667 122.32 33.87 123.177 33.2767C124.035 32.6833 124.687 31.83 125.132 30.7183C125.577 29.6067 125.798 28.2717 125.798 26.715C125.798 25.1583 125.578 23.835 125.138 22.68C124.698 21.525 124.053 20.6283 123.2 19.9867C122.347 19.3467 121.302 19.025 120.062 19.025C118.822 19.025 117.71 19.3583 116.852 20.0267C115.993 20.6933 115.348 21.6067 114.913 22.7667C114.478 23.9267 114.262 25.2433 114.262 26.715C114.262 28.1867 114.482 29.5133 114.922 30.6317C115.362 31.75 116.012 32.6183 116.875 33.2367C117.738 33.8567 118.8 34.1667 120.06 34.1667H120.063ZM148.908 28.7633V14.6233H154.66V39.0267H149.083V34.69H148.828C148.278 36.0567 147.375 37.1733 146.12 38.0417C144.865 38.91 143.322 39.345 141.488 39.345C139.888 39.345 138.477 38.9883 137.253 38.2733C136.03 37.5583 135.073 36.515 134.385 35.1433C133.697 33.7717 133.352 32.1117 133.352 30.1617V14.6233H139.103V29.2717C139.103 30.8183 139.527 32.0467 140.375 32.9583C141.222 33.87 142.335 34.325 143.712 34.325C144.558 34.325 145.38 34.1183 146.175 33.705C146.97 33.2917 147.623 32.675 148.137 31.855C148.65 31.035 148.907 30.0033 148.907 28.765L148.908 28.7633ZM162.295 6.48833V39.0267H156.543V6.48833H162.295ZM171.425 39.52C169.878 39.52 168.488 39.2417 167.255 38.6867C166.022 38.13 165.047 37.3067 164.332 36.2167C163.617 35.1267 163.26 33.78 163.26 32.1817C163.26 30.805 163.513 29.6667 164.022 28.7667C164.53 27.8667 165.223 27.1467 166.103 26.6067C166.982 26.0667 167.975 25.6567 169.082 25.375C170.188 25.095 171.335 24.89 172.522 24.7633C173.952 24.615 175.112 24.48 176.002 24.3583C176.892 24.2367 177.54 24.0467 177.948 23.7867C178.355 23.5267 178.56 23.1217 178.56 22.5717V22.4767C178.56 21.28 178.205 20.3533 177.495 19.6967C176.785 19.04 175.763 18.7117 174.428 18.7117C173.02 18.7117 171.905 19.0183 171.083 19.6333C170.262 20.2483 169.71 20.9733 169.423 21.81L164.053 21.0467C164.477 19.5633 165.175 18.3217 166.15 17.3217C167.125 16.32 168.317 15.5683 169.725 15.065C171.133 14.5617 172.69 14.31 174.397 14.31C175.572 14.31 176.743 14.4483 177.908 14.7233C179.073 14.9983 180.138 15.4517 181.102 16.0817C182.065 16.7117 182.842 17.5667 183.43 18.6483C184.018 19.7283 184.312 21.08 184.312 22.7V39.0333H178.783V35.6817H178.593C178.243 36.36 177.753 36.9917 177.123 37.58C176.493 38.1683 175.703 38.64 174.757 38.9933C173.808 39.3483 172.7 39.525 171.428 39.525L171.425 39.52ZM172.918 35.2933C174.073 35.2933 175.073 35.0633 175.922 34.6017C176.768 34.14 177.423 33.5283 177.883 32.7667C178.343 32.0033 178.575 31.1733 178.575 30.2717V27.3967C178.395 27.545 178.09 27.6833 177.662 27.81C177.232 27.9367 176.753 28.0483 176.223 28.1433C175.693 28.2383 175.17 28.3233 174.65 28.3983C174.132 28.4717 173.68 28.5367 173.3 28.5883C172.442 28.705 171.675 28.895 170.997 29.16C170.318 29.425 169.783 29.7933 169.392 30.265C169 30.7367 168.803 31.3433 168.803 32.0833C168.803 33.1433 169.19 33.9417 169.963 34.4817C170.737 35.0217 171.722 35.2917 172.918 35.2917V35.2933ZM186.082 39.0283V14.6233H191.658V18.69H191.912C192.357 17.2817 193.122 16.1933 194.207 15.425C195.292 14.6567 196.535 14.2733 197.932 14.2733C198.25 14.2733 198.607 14.2867 199.003 14.3133C199.4 14.34 199.732 14.38 199.997 14.4333V19.7233C199.753 19.6383 199.37 19.5617 198.845 19.4933C198.32 19.425 197.815 19.39 197.328 19.39C196.28 19.39 195.34 19.615 194.508 20.065C193.677 20.515 193.023 21.1367 192.547 21.9317C192.07 22.7267 191.832 23.6417 191.832 24.68V39.0267H186.08L186.082 39.0283ZM45.235 7.97667L43.61 33.6233L27.9883 0L45.2367 7.97667H45.235ZM34.42 41.1483L22.6183 47.875L10.8167 41.1483L13.22 35.335H32.0183L34.4217 41.1483H34.42ZM22.6183 12.7583L28.8 27.79H16.4383L22.62 12.7583H22.6183ZM1.625 33.625L0 7.97667L17.2483 0L1.625 33.625Z" fill="white"/>
</g>
<defs>
<clipPath id="clip0_1262_2272">
<rect width="200" height="48.6867" fill="white"/>
</clipPath>
</defs>
</svg>
