<svg width="512" height="512" viewBox="0 0 512 512" fill="none" xmlns="http://www.w3.org/2000/svg">
<g clip-path="url(#clip0_301_1484)">
<path d="M508.592 221.497C507.74 212.978 506.037 204.459 503.481 195.94H6.81534L1.70386 221.497H508.592Z" fill="white"/>
<path d="M2.55591 289.651C3.40782 298.17 5.11165 306.689 7.66739 315.208H504.333L509.444 289.651H2.55591Z" fill="white"/>
<path d="M153.345 21.2979L127.787 34.0766V477.072C136.306 482.183 144.825 486.443 153.345 489.85V21.2979Z" fill="white"/>
<path d="M221.498 2.55574V509.444L247.055 512V0C238.536 0 230.017 0.851913 221.498 2.55574Z" fill="white"/>
<path d="M0 255.574C0 267.501 0.851913 278.576 2.55574 289.65H509.444C511.148 278.576 512 267.501 512 255.574C512 243.647 511.148 232.572 509.444 221.497H2.55574C0.851913 232.572 0 243.647 0 255.574" fill="#002868"/>
<path d="M153.344 489.85C174.642 499.221 197.644 506.037 221.498 508.592V2.55566C197.644 5.96332 174.642 11.9267 153.344 21.2978V489.85Z" fill="#002868"/>
<path d="M127.787 195.94V34.0767C68.153 69.0051 23.8535 126.935 6.81519 195.94H127.787Z" fill="#EF2B2D"/>
<path d="M127.787 315.208V477.072C68.153 442.143 23.8535 384.213 6.81519 315.208H127.787Z" fill="#EF2B2D"/>
<path d="M255.574 0H247.055V195.94H504.333C477.072 83.4875 376.546 0 255.574 0Z" fill="#EF2B2D"/>
<path d="M247.055 315.208V511.148H255.574C376.546 511.148 477.072 427.661 504.333 315.208H247.055Z" fill="#EF2B2D"/>
</g>
<defs>
<clipPath id="clip0_301_1484">
<rect width="512" height="512" fill="white"/>
</clipPath>
</defs>
</svg>
